<?xml version="1.0" standalone="no"?>
<!DOCTYPE svg PUBLIC "-//W3C//DTD SVG 20010904//EN"
 "http://www.w3.org/TR/2001/REC-SVG-20010904/DTD/svg10.dtd">
<svg version="1.0" xmlns="http://www.w3.org/2000/svg"
 width="300.000000pt" height="300.000000pt" viewBox="0 0 300.000000 300.000000"
 preserveAspectRatio="xMidYMid meet">
<metadata>
Created by potrace 1.11, written by Peter Selinger 2001-2013
</metadata>
<g transform="translate(0.000000,300.000000) scale(0.100000,-0.100000)"
fill="#000000" stroke="none">
<path d="M1464 2967 c-16 -18 -58 -66 -94 -107 -35 -41 -71 -82 -80 -91 -8 -8
-33 -37 -55 -63 -22 -27 -51 -60 -65 -75 -14 -15 -50 -55 -80 -91 -30 -35 -60
-68 -65 -74 -6 -6 -53 -60 -105 -121 -52 -60 -99 -115 -105 -121 -25 -27 -142
-160 -241 -274 -60 -69 -113 -130 -119 -136 -5 -6 -32 -37 -60 -69 -27 -32
-61 -70 -75 -85 -14 -15 -77 -87 -140 -159 -63 -73 -127 -147 -142 -164 -16
-17 -28 -35 -29 -41 -6 -65 -2 -1274 4 -1283 6 -8 15 -9 31 -2 12 6 70 22 129
37 60 15 108 31 108 35 0 4 -20 22 -43 40 -53 40 -86 88 -83 119 1 13 3 28 4
35 2 17 88 55 109 49 10 -4 30 -30 43 -58 64 -139 166 -179 294 -117 94 45
247 228 358 431 28 50 28 51 -18 63 -16 5 -34 9 -40 11 -9 3 -22 6 -77 20
-159 39 -328 12 -417 -65 -27 -24 -41 -27 -41 -9 0 19 71 76 141 113 128 67
301 88 468 55 29 -5 60 -10 68 -10 15 0 93 156 186 376 107 251 193 481 315
849 79 235 95 277 114 292 17 15 102 30 159 29 66 -1 76 33 -188 -631 -63
-159 -123 -308 -133 -330 -10 -22 -29 -67 -42 -100 -43 -105 -90 -206 -170
-365 -43 -85 -74 -157 -70 -161 4 -4 34 -14 67 -22 33 -9 92 -25 130 -36 214
-60 266 -74 325 -87 36 -8 74 -17 85 -20 11 -2 40 -7 65 -10 l46 -6 45 93 c25
52 78 180 118 284 39 105 78 203 86 218 8 16 15 35 15 43 0 8 4 22 9 32 10 17
22 49 27 67 1 6 43 118 94 250 155 407 144 373 129 388 -12 12 -84 94 -142
161 -10 12 -39 45 -65 75 -26 30 -55 63 -65 75 -47 54 -123 141 -137 156 -15
16 -145 164 -184 210 -26 31 -227 261 -241 276 -5 6 -34 38 -64 72 -29 34 -57
62 -61 62 -4 0 -20 -15 -36 -33z"/>
<path d="M2556 1657 c-22 -50 -50 -114 -62 -142 -12 -27 -43 -99 -69 -160 -26
-60 -58 -132 -70 -160 -13 -27 -49 -108 -80 -180 -31 -71 -66 -150 -77 -175
-77 -167 -137 -314 -133 -321 7 -11 214 -9 267 3 23 5 51 11 60 13 31 7 142
48 173 65 17 9 41 23 55 30 33 19 50 21 50 7 -1 -29 -55 -71 -166 -126 -87
-43 -321 -124 -334 -116 -5 3 -11 1 -14 -3 -3 -5 -20 -9 -38 -10 -18 -1 -42
-4 -53 -6 -11 -3 -33 -5 -48 -5 -17 -1 -30 -8 -33 -18 -3 -10 -10 -27 -14 -38
-7 -16 -30 -116 -30 -129 0 -1 10 -2 23 -2 12 0 54 -3 92 -8 39 -4 86 -9 105
-11 35 -4 52 -6 185 -26 104 -16 103 -16 195 -33 120 -22 123 -22 245 -51 61
-14 129 -31 152 -39 29 -10 45 -11 49 -4 5 8 10 1228 5 1284 -1 5 -9 19 -18
30 -10 10 -47 53 -83 94 -36 41 -67 77 -70 80 -3 3 -34 39 -70 80 -35 41 -75
86 -89 100 -13 14 -30 35 -38 48 -9 12 -18 22 -22 22 -3 0 -24 -42 -45 -93z"/>
<path d="M1086 534 c-68 -108 -279 -343 -308 -344 -5 0 -8 -7 -8 -16 0 -8 3
-13 8 -10 8 5 103 17 172 22 25 2 72 6 105 9 33 4 206 8 385 9 l325 3 42 79
c23 43 42 82 42 86 1 7 -18 14 -61 23 -74 14 -73 14 -258 60 -30 8 -64 19 -75
24 -19 9 -150 49 -170 51 -5 1 -14 5 -20 10 -5 4 -27 11 -48 15 -20 4 -40 11
-43 16 -3 5 -17 9 -32 9 -21 0 -33 -10 -56 -46z"/>
</g>
</svg>
